<svg width="42" height="29" viewBox="0 0 42 29" fill="none" xmlns="http://www.w3.org/2000/svg">
<rect width="41.472" height="28.704" transform="scale(1.01031)" fill="#282C33"/>
<path d="M18.7514 19.8183C18.7514 21.2624 18.2234 22.4801 17.1672 23.4716C16.1327 24.463 14.8718 24.9588 13.3846 24.9588C11.8543 24.9588 10.5827 24.463 9.56968 23.4716C8.57823 22.4801 8.0825 21.2624 8.0825 19.8183C8.0825 19.1286 8.17949 18.3958 8.37347 17.6199C8.56745 16.8439 8.95541 15.8417 9.53735 14.6132L14.5485 4.04125H19.398L16.7146 15.7447C17.3181 16.1758 17.8031 16.7469 18.1695 17.4582C18.5574 18.1479 18.7514 18.9346 18.7514 19.8183ZM33.1383 19.8183C33.1383 21.2624 32.6102 22.4801 31.5541 23.4716C30.498 24.463 29.2371 24.9588 27.7715 24.9588C26.2843 24.9588 25.0234 24.463 23.9889 23.4716C22.9759 22.4801 22.4694 21.2624 22.4694 19.8183C22.4694 19.1286 22.5663 18.3958 22.7603 17.6199C22.9543 16.8439 23.353 15.8417 23.9565 14.6132L29 4.04125H33.8172L31.1015 15.7447C31.7265 16.1758 32.2222 16.7469 32.5887 17.4582C32.9551 18.1479 33.1383 18.9346 33.1383 19.8183Z" fill="#ABB2BF"/>
</svg>
