<svg xmlns="http://www.w3.org/2000/svg" enable-background="new 0 0 24 24" viewBox="0 0 24 24" id="hackerrank">
  <path d="M11.999,24c-1.56,0-9.643-4.654-10.42-6C0.805,16.659,0.804,7.352,1.578,6.002C2.351,4.656,10.434,0,11.999,0c1.553,0,9.635,4.652,10.419,5.997c0.783,1.343,0.784,10.655,0.001,12.004C21.639,19.347,13.556,24,11.999,24z M11.999,1.5c-1.176,0.092-8.486,4.3-9.124,5.254c-0.501,1.021-0.501,9.472,0.007,10.501c0.633,0.943,7.973,5.168,9.125,5.244c1.134-0.076,8.476-4.302,9.119-5.258c0.5-1.018,0.501-9.465-0.008-10.497C20.48,5.805,13.169,1.593,11.999,1.5z"></path>
  <path d="M14.507,12.75H9.491c-0.202,0-0.396-0.082-0.536-0.226c-0.142-0.145-0.219-0.339-0.214-0.542c0.009-0.385,0.011-0.938,0.013-1.549c0.003-1.36,0.008-2.901,0.088-3.754c0.039-0.412,0.409-0.72,0.817-0.676c0.413,0.039,0.716,0.405,0.677,0.817c-0.074,0.784-0.079,2.355-0.082,3.617c-0.001,0.287-0.002,0.562-0.004,0.812h3.509c-0.002-1.158-0.021-2.325-0.06-3.476C13.687,7.36,14.011,7.014,14.425,7c0.419-0.026,0.761,0.312,0.774,0.725c0.045,1.382,0.064,2.786,0.058,4.172V12C15.257,12.414,14.921,12.75,14.507,12.75z"></path>
  <path d="M14.494,18c-0.414,0-0.75-0.336-0.75-0.75c0-1.235,0.028-2.959,0.045-3.794c-0.007-0.09-0.021-0.256-0.027-0.706l-3.521,0.021c-0.004,1.143-0.006,2.046,0.064,3.441c0.021,0.414-0.298,0.766-0.711,0.787c-0.419,0.017-0.767-0.298-0.787-0.711c-0.072-1.436-0.07-2.402-0.066-3.521L8.741,12c0-0.414,0.336-0.75,0.75-0.75h5.016c0.414,0,0.75,0.336,0.75,0.75c0,0.964,0.019,1.227,0.026,1.338c0.002,0.023,0.006,0.125,0.006,0.148c-0.017,0.828-0.045,2.539-0.045,3.764C15.244,17.664,14.908,18,14.494,18z"></path>
  <path d="M14.505 19.998c-.771 0-2.346-2.133-2.442-2.381-.113-.291-.039-.687.193-.895l0 0c.358-.302 4.152-.306 4.489-.002.23.208.306.603.193.893-.096.248-1.658 2.385-2.429 2.385C14.509 19.998 14.507 19.998 14.505 19.998zM14.25 18.001c.089.095.176.186.256.268.08-.082.166-.173.254-.268C14.592 18 14.418 18 14.25 18.001zM12.758 17.278h.01H12.758zM9.479 7.507c-1.031 0-2.056-.075-2.224-.227-.23-.208-.306-.603-.193-.893C7.157 6.14 8.72 4.002 9.49 4.002c.001 0 .003 0 .005 0 .771 0 2.346 2.133 2.442 2.381.113.291.039.687-.193.895l0 0C11.564 7.43 10.518 7.507 9.479 7.507zM11.208 6.727h.01H11.208zM9.24 6c.168 0 .34 0 .51 0C9.661 5.904 9.574 5.813 9.494 5.731 9.414 5.813 9.328 5.904 9.24 6z"></path>
</svg>
