<svg width="57" height="85" viewBox="0 0 57 85" fill="none" xmlns="http://www.w3.org/2000/svg">
<mask id="path-1-inside-1_4_39" fill="white">
<path fill-rule="evenodd" clip-rule="evenodd" d="M0 0H28.3333H56.6667V28.3333V56.6667V85H28.3333H0V56.6667H28.3333V28.3333H0V0Z"/>
</mask>
<path d="M0 0V-1.00295H-1.00295V0H0ZM56.6667 0H57.6696V-1.00295H56.6667V0ZM56.6667 85V86.0029H57.6696V85H56.6667ZM0 85H-1.00295V86.0029H0V85ZM0 56.6667V55.6637H-1.00295V56.6667H0ZM28.3333 56.6667V57.6696H29.3363V56.6667H28.3333ZM28.3333 28.3333H29.3363V27.3304H28.3333V28.3333ZM0 28.3333H-1.00295V29.3363H0V28.3333ZM28.3333 -1.00295H0V1.00295H28.3333V-1.00295ZM56.6667 -1.00295H28.3333V1.00295H56.6667V-1.00295ZM57.6696 28.3333V0H55.6637V28.3333H57.6696ZM57.6696 56.6667V28.3333H55.6637V56.6667H57.6696ZM57.6696 85V56.6667H55.6637V85H57.6696ZM28.3333 86.0029H56.6667V83.9971H28.3333V86.0029ZM28.3333 83.9971H0V86.0029H28.3333V83.9971ZM1.00295 85V56.6667H-1.00295V85H1.00295ZM0 57.6696H28.3333V55.6637H0V57.6696ZM27.3304 28.3333V56.6667H29.3363V28.3333H27.3304ZM0 29.3363H28.3333V27.3304H0V29.3363ZM-1.00295 0V28.3333H1.00295V0H-1.00295Z" fill="#C778DD" mask="url(#path-1-inside-1_4_39)"/>
</svg>
