<svg width="80" height="119" viewBox="0 0 80 119" fill="none" xmlns="http://www.w3.org/2000/svg">
<mask id="path-1-outside-1_0_103" maskUnits="userSpaceOnUse" x="0" y="0" width="80.5031" height="119.748" fill="black">
<rect fill="white" width="80.5031" height="119.748"/>
<path fill-rule="evenodd" clip-rule="evenodd" d="M1.00629 1.00629H40H78.9937V40V78.9937V117.987H40H1.00629V78.9937H40V40H1.00629V1.00629Z"/>
</mask>
<path d="M1.00629 1.00629V0H0V1.00629H1.00629ZM78.9937 1.00629H80V0H78.9937V1.00629ZM78.9937 117.987V118.994H80V117.987H78.9937ZM1.00629 117.987H0V118.994H1.00629V117.987ZM1.00629 78.9937V77.9874H0V78.9937H1.00629ZM40 78.9937V80H41.0063V78.9937H40ZM40 40H41.0063V38.9937H40V40ZM1.00629 40H0V41.0063H1.00629V40ZM40 0H1.00629V2.01258H40V0ZM78.9937 0H40V2.01258H78.9937V0ZM80 40V1.00629H77.9874V40H80ZM80 78.9937V40H77.9874V78.9937H80ZM80 117.987V78.9937H77.9874V117.987H80ZM40 118.994H78.9937V116.981H40V118.994ZM40 116.981H1.00629V118.994H40V116.981ZM2.01258 117.987V78.9937H0V117.987H2.01258ZM1.00629 80H40V77.9874H1.00629V80ZM38.9937 40V78.9937H41.0063V40H38.9937ZM1.00629 41.0063H40V38.9937H1.00629V41.0063ZM0 1.00629V40H2.01258V1.00629H0Z" fill="#C778DD" mask="url(#path-1-outside-1_0_103)"/>
</svg>
