<svg width="78" height="117" viewBox="0 0 78 117" fill="none" xmlns="http://www.w3.org/2000/svg">
<mask id="path-1-inside-1_0_97" fill="white">
<path fill-rule="evenodd" clip-rule="evenodd" d="M0 0H39H78V39H39V78H78V117H39H0V78V39V0Z"/>
</mask>
<path d="M0 0V-1.00645H-1.00645V0H0ZM78 0H79.0065V-1.00645H78V0ZM78 39V40.0065H79.0065V39H78ZM39 39V37.9935H37.9935V39H39ZM39 78H37.9935V79.0065H39V78ZM78 78H79.0065V76.9935H78V78ZM78 117V118.006H79.0065V117H78ZM0 117H-1.00645V118.006H0V117ZM39 -1.00645H0V1.00645H39V-1.00645ZM78 -1.00645H39V1.00645H78V-1.00645ZM79.0065 39V0H76.9935V39H79.0065ZM39 40.0065H78V37.9935H39V40.0065ZM40.0065 78V39H37.9935V78H40.0065ZM39 79.0065H78V76.9935H39V79.0065ZM76.9935 78V117H79.0065V78H76.9935ZM78 115.994H39V118.006H78V115.994ZM0 118.006H39V115.994H0V118.006ZM-1.00645 78V117H1.00645V78H-1.00645ZM-1.00645 39V78H1.00645V39H-1.00645ZM-1.00645 0V39H1.00645V0H-1.00645Z" fill="#C778DD" mask="url(#path-1-inside-1_0_97)"/>
</svg>
