<svg width="59" height="87" viewBox="0 0 59 87" fill="none" xmlns="http://www.w3.org/2000/svg">
<mask id="path-1-outside-1_4_63" maskUnits="userSpaceOnUse" x="0" y="0" width="59.17" height="87.2507" fill="black">
<rect fill="white" width="59.17" height="87.2507"/>
<path fill-rule="evenodd" clip-rule="evenodd" d="M1.00288 1.00288H29.3343H57.6657V29.3343H29.3343V57.6657H57.6657V85.9971H29.3343H1.00288V57.6657V29.3343V1.00288Z"/>
</mask>
<path d="M1.00288 1.00288V0H0V1.00288H1.00288ZM57.6657 1.00288H58.6686V0H57.6657V1.00288ZM57.6657 29.3343V30.3372H58.6686V29.3343H57.6657ZM29.3343 29.3343V28.3314H28.3314V29.3343H29.3343ZM29.3343 57.6657H28.3314V58.6686H29.3343V57.6657ZM57.6657 57.6657H58.6686V56.6628H57.6657V57.6657ZM57.6657 85.9971V87H58.6686V85.9971H57.6657ZM1.00288 85.9971H0V87H1.00288V85.9971ZM29.3343 0H1.00288V2.00576H29.3343V0ZM57.6657 0H29.3343V2.00576H57.6657V0ZM58.6686 29.3343V1.00288H56.6628V29.3343H58.6686ZM29.3343 30.3372H57.6657V28.3314H29.3343V30.3372ZM30.3372 57.6657V29.3343H28.3314V57.6657H30.3372ZM29.3343 58.6686H57.6657V56.6628H29.3343V58.6686ZM56.6628 57.6657V85.9971H58.6686V57.6657H56.6628ZM57.6657 84.9942H29.3343V87H57.6657V84.9942ZM1.00288 87H29.3343V84.9942H1.00288V87ZM0 57.6657V85.9971H2.00576V57.6657H0ZM0 29.3343V57.6657H2.00576V29.3343H0ZM0 1.00288V29.3343H2.00576V1.00288H0Z" fill="#C778DD" mask="url(#path-1-outside-1_4_63)"/>
</svg>
